<svg width="594" height="414" viewBox="0 0 594 414" fill="none" xmlns="http://www.w3.org/2000/svg">
<path d="M78.2084 263.518L79.8506 268.319L81.5785 266.634L86.9855 267.978L86.4991 270.216L91.334 272.488L94.807 271.862L101.519 275.581L107.893 276.931L110.416 278.338L114.953 276.925L119.994 279.995L123.667 281.396L123.501 316.662L123.267 367.83L127.558 368.08L131.849 370.444L135.008 374.191L139.139 379.761L143.281 374.749L147.572 371.714L150.187 376.059L153.431 379.397L157.849 382.968L161.213 388.868L166.86 398.118L175.46 402.623L176.215 407.897L173.995 412.237L170.997 409.377L166.494 407.122L164.457 399.9L157.843 393.556L154.759 385.679L150.347 385.417L143.098 385.588L137.685 383.31L128.245 374.516L124.005 372.881L116.355 369.681L110.267 370.25L101.885 365.836L96.9984 361.775L92.0835 363.256L92.4783 369.384L90.0123 369.737L84.7655 371.07L80.5772 373.576L75.4563 374.835V369.681L78.443 361.411L83.2893 359.235L82.3624 356.911L76.3546 361.143L72.6641 366.542L65.4891 371.782L68.1268 376.407L62.9945 381.92L57.5646 384.705L52.5696 386.51L50.7787 390.036L42.7626 393.02L40.5197 396.637L34.3002 399.057L31.2162 397.73L26.3127 399.046L20.8657 400.709L16.254 402.469L7.50556 402.663L7.13937 401.102L13.3131 398.681L18.5484 397.332L24.6191 394.051L30.604 394.438L33.6422 391.545L41.0632 387.889L42.4193 386.419L46.3558 384.107L48.347 377.859L51.5397 373.269L45.9438 374.88L44.8052 373.143L41.7785 375.735L39.793 370.848L37.9506 373.622L37.2297 369.06L32.0802 371.446L29.3853 370.808L30.2149 365.711L31.7426 362.8L29.7171 359.121L23.7609 359.343L21.2433 354.44L18.9318 351.632L20.2535 346.836L18.125 342.331L21.1003 337.883L25.7062 333.999L28.3268 329.944L31.6854 330.149L34.037 332.233L38.2653 328.805L40.9431 330.24L44.5649 328.195L44.7595 323.998L42.9686 321.907L46.6018 319.128L44.2331 318.695L39.7186 319.663L38.0651 321.327L35.5418 318.621L29.8888 318.183L24.9395 314.515L24.4131 310.522L21.312 303.995L27.5601 301.837L36.8635 299.724L39.8331 300.504L38.1623 304.873L45.9953 306.439L44.3933 300.117L40.863 295.543L39.5642 290.326L37.3041 285.514L33.4362 281.271L36.7434 276.994L42.7912 278.343L48.1353 275.177L50.0863 270.774L54.5378 267.055L57.9537 266.691L64.9971 263.706L67.8178 264.948L73.7169 260.631L78.2084 263.518ZM2.37893 315.865L4.14693 318.308L6.82468 318.245L9.15913 321.537L12.615 323.918L11.9971 324.749L8.4668 325.604L6.13807 322.773L5.19972 320.734L1.64655 320.056L1 318.986L2.37893 315.865ZM16.5573 356.382L13.5877 356.946L11.2761 354.576L9.4166 351.546L13.9711 351.336L17.0722 353.044L16.5573 356.382ZM67.3315 391.454L62.2449 394.011L60.208 391.483L60.1107 387.422L64.711 385.035L67.3201 384.084L70.2553 385.064L71.8459 387.951L67.3315 391.454Z" fill="#1E1E1E" stroke="#55ACDD" stroke-opacity="0.48"/>
<path d="M439.504 210.915L444.15 226.561L448.247 239.051L450.307 242.895L451.548 245.082L450.009 247.565L449.889 251.746L450.782 254.104V256.422L450.736 258.575L451.64 260.141L452.378 261.599L429.531 264.185L423.186 265.534L423.1 266.537L425.961 269.453L425.612 272.067L424.96 273.924L414.781 273.371L412.767 253.591L412.95 232.763L413.419 215.876L412.441 213.444L425.829 212.208L439.504 210.915Z" fill="#1E1E1E" stroke="#55ACDD" stroke-opacity="0.48"/>
<path d="M395.562 201.484L395.527 202.56L394.583 204.451L392.815 205.829L392.552 207.994L390.984 209.799L391.356 213.547L390.218 214.828L390.08 215.865L388.232 216.947L388.307 218.821L387.082 222.363L385.881 223.172L384.078 225.04L383.083 227.768L380.966 232.41L380.88 235.491L382.316 238.823L381.927 241.397L372.641 241.409L360.671 242.297L350.069 242.553L350.544 235.184H348.02L345.909 235.394L345.32 234.557L345.44 223.223L345.451 210.636L343.134 197.007L355.87 196.916L367.451 196.552L378.5 196.045L390.464 196.142L391.442 197.679L390.349 199.143L389.262 200.613L388.696 201.934L395.562 201.484Z" fill="#1E1E1E" stroke="#55ACDD" stroke-opacity="0.48"/>
<path d="M193.449 181.493L182.927 254.07L160.961 250.732L137.514 237.234L122.363 227.751L123.867 225.518L125.298 225.832L127.014 223.536L125.481 221.395L125.498 219.413L125.412 217.061L128.102 214.578L130.15 208.945L133.898 206.991L132.399 204.149L131.529 201.484L131.123 199.086L130.905 197.252L130.928 196.073L132.09 193.721L132.095 191.135L132.393 188.635L132.965 185.913L132.404 183.988L133.44 182.575L135.608 183.019L137.405 184.324L138.71 185.11L139.785 183.316L140.317 182.985L142.303 172.779L158.827 175.735L178.532 179.129L193.449 181.493Z" fill="#1E1E1E" stroke="#55ACDD" stroke-opacity="0.48"/>
<path d="M98.7722 96.267L88.6047 133.657L102.857 155.357L117.053 176.276L130.928 196.073L130.905 197.252L131.123 199.086L131.529 201.484L132.399 204.149L133.898 206.991L130.15 208.945L128.102 214.578L125.412 217.061L125.498 219.413L125.481 221.395L127.014 223.536L125.298 225.832L123.867 225.518L109.907 223.907L97.4504 222.078L97.2559 217.123L94.3207 209.52L84.9428 199.211L80.8404 197.662L77.3387 192.531L69.3684 189.358L67.28 186.613L67.9323 179.437L61.6212 164.133L58.4114 144.461L59.6244 141.699L56.5289 136.306L52.2205 123.65L54.0801 113.194L51.1734 104.861L56.5347 95.3158L59.6072 84.6597L98.7722 96.267Z" fill="#1E1E1E" stroke="#55ACDD" stroke-opacity="0.48"/>
<path d="M268.432 150.425L267.201 170.285L265.926 189.205L255.941 188.447L243.525 187.394L225.919 185.634L209.59 183.674L193.449 181.493L200.796 130.32L210.562 131.664L220.335 132.906L239.92 135.058L249.733 135.975L269.318 137.49L268.454 150.009L268.432 150.425Z" fill="#1E1E1E" stroke="#55ACDD" stroke-opacity="0.48"/>
<path d="M560.569 95.5038L562.515 102.304L562.44 104.286L558.435 106.035L553.091 108.096L546.42 112.937L545.693 111.491L547.455 109.748L546.437 108.871L544.532 99.1489L551.775 97.5371L560.569 95.5038Z" fill="#1E1E1E" stroke="#55ACDD" stroke-opacity="0.48"/>
<path d="M519.877 148.152L519.768 147.4L518.71 146.489L519.385 145.715L520.924 146.757L519.877 148.152Z" fill="#1E1E1E" stroke="#55ACDD" stroke-opacity="0.48"/>
<path d="M533.157 131.92L532.013 133.566L532.825 135.93L536.441 142.24L540.635 148.05L534.009 149.565L529.638 133.674L530.159 132.513L530.908 131.749L533.157 131.92Z" fill="#1E1E1E" stroke="#55ACDD" stroke-opacity="0.48"/>
<path d="M492.144 259.44L495.131 268.599L501.184 278.469L507.964 287.279L508.84 292.32L516.209 304.707L518.767 316.218L518.303 327.933L513.692 331.094L507.541 330.491L504.714 325.068L499.714 322.785L491.709 312.539L484.545 303.887L482.566 297.793L483.372 289.603L479.665 282.735L471.162 276.014L464.039 271.965L451.966 278.998L448.922 275.672L437.576 271.019L424.96 273.924L425.612 272.067L425.961 269.453L423.1 266.537L423.186 265.534L429.531 264.185L452.378 261.599L454.507 264.874L465.864 264.019L484.328 263.353L485.507 265.477L486.777 264.099L486.107 259.623L487.383 258.973L489.746 259.577L492.144 259.44Z" stroke="#55ACDD" stroke-opacity="0.48"/>
<path d="M466.562 207.532L465.549 208.763L464.193 211.428L467.369 213.154L469.331 213.666L471.912 217.431L473.525 219.516L477.725 221.993L478.709 223.474L481.587 225.165L483.327 228.019L487.2 230.058L488.448 232.86L489.323 234.176L489.1 235.178L491.36 236.249L492.836 238.476L493.219 240.919L494.307 241.226L496.298 241.574L493.065 251.763L492.144 259.44L489.746 259.577L487.383 258.973L486.107 259.623L486.777 264.099L485.507 265.477L484.328 263.353L465.864 264.019L454.507 264.874L452.378 261.599L451.64 260.141L450.736 258.575L450.782 256.422V254.104L449.889 251.746L450.009 247.565L451.548 245.082L450.307 242.895L448.247 239.051L444.15 226.561L439.504 210.915L447.709 210.061L453.357 209.218L466.562 207.532Z" fill="#1E1E1E" stroke="#55ACDD" stroke-opacity="0.48"/>
<path d="M222.16 329.687L220.421 329.744L219.42 328.389L218.905 325.911L220.186 325.467L222.063 325.763L223.957 327.398L223.86 328.326L222.16 329.687ZM232.19 345.8L231.813 347.782L230.102 347.001L229.747 345.617L229.152 345.344L228.878 345.287L227.779 344.359L228.38 340.771L229.787 341.682L231.933 341.876L231.361 344.917L232.19 345.8ZM238.736 355.59L236.711 355.488L233.358 351.979L234.582 351.176L238.736 355.59ZM238.959 357.589L239.177 359.566L241.065 360.482L242.186 363.752L241.666 364.509L240.321 364.526L237.357 362.818L238.17 360.494L237.128 359.366L237.346 357.612L238.261 357.191L238.959 357.589ZM234.187 382.985L232.299 383.737L230.766 380.94L232.98 377.922L234.267 373.354L238.255 372.443L238.73 370.495L239.571 369.755L240.069 369.897L243.697 376.897L243.851 378.793L243.107 380.143L243.685 380.826L243.382 381.909L243.857 384.067L240.098 384.318L237.34 383.116L234.187 382.985Z" fill="#1E1E1E" stroke="#55ACDD" stroke-opacity="0.48"/>
<path d="M373.985 105.955L374.157 106.655L375.502 108.643L374.706 109.668L374.884 112.385L375.336 113.518L376.062 115.54L379.261 116.605L380.308 118.525L380.926 119.476L382.104 120.068L382.648 121.435L384.227 122.375L385.297 123.428L385 126.931L383.386 129.967L382.791 130.935L380.611 131.812L377.298 132.638L376.543 134.905L377.813 135.844L378.339 137.821L377.178 140.127L376.629 142.121L374.197 144.171L374.117 146.535L372.709 145.527L370.718 143.522L359.921 144.239L348.541 144.661L339.672 144.832L330.787 144.889L330.129 142.548L330.403 140.236L330.186 138.009L329.173 134.278L328.526 132.735L327.823 132.313L327.754 129.323L327.148 127.182L325.391 124.738L325.42 123.668L324.813 121.532L324.39 120.239L324.407 119.054L322.862 117.608L323.646 115.489L324.155 113.416L324.39 112.009L323.182 110.283L323.217 107.123H324.476L334.838 107.134L347.717 106.775L361.552 106.28L373.985 105.955Z" fill="#1E1E1E" stroke="#55ACDD" stroke-opacity="0.48"/>
<path d="M188.58 82.4899L188.872 82.7746L183.528 114.561L155.056 109.458L126.717 103.204L132.21 80.5819L133.858 77.1818L133.509 75.3592L132.004 74.1062L132.507 72.0901L134.464 69.5214L137.004 67.4768L139.247 63.6836L141.216 60.6993L142.503 59.2526L142.469 57.2194L141.21 55.8468L139.682 52.9193L140.289 50.681L139.934 48.5567L143.871 30.787L147.687 14.4868L156.018 16.3776L153.683 29.9726L155.205 33.8682L154.69 36.1692L155.857 38.5612L157.608 40.2072L158.644 42.4967L160.246 46.9619L162.134 49.2914L164.772 49.9577L163.216 52.589L161.659 55.7727L161.728 59.2071L160.515 59.8165L159.931 63.1027L161.276 64.6917L163.364 63.5356L164.646 61.9238L165.664 62.4933L166.391 64.4582L166.626 68.6956L167.919 70.6036L167.844 74.0493L168.216 75.0858L170.013 75.7579L170.785 77.8253L171.781 81.4476L173.806 79.9896L176.73 81.0091L177.205 79.7959L182.246 81.516L184.426 81.4704L186.177 79.1524L187.109 79.6707L187.699 81.6185L188.58 82.4899Z" fill="#1E1E1E" stroke="#55ACDD" stroke-opacity="0.48"/>
<path d="M407.549 116.611V116.645L407.926 119.994L411.159 126.527L412.549 141.437L413.934 156.331L413.127 160.016L414.043 160.881L414.781 163.028L414.867 164.766L414.089 165.626L413.551 167.824L411.697 170.82L410.575 174.402L410.478 177.033L410.633 177.985L409.626 179.875L410.61 181.015L408.882 182.108L406.639 183.384L407.274 186.163L406.004 187.336L403.406 186.345L400.597 185.861L399.99 187.166L400.54 189.085L398.548 187.223L397.456 187.638L395.899 184.569L396.14 182.609L395.15 179.545L394.086 179.238L391.202 176.589L390.035 176.618L387.889 174.932L386.321 173.087L386.836 170.78L387.66 168.843L388.084 166.429L386.024 164.475L384.158 165.426L382.974 164.954L382.682 162.806L381.698 160.403L380.737 159.868L378.322 158.261L376.291 156.171L374.495 153.603L373.413 149.787L374.117 146.535L374.197 144.171L376.629 142.121L377.178 140.127L378.339 137.821L377.813 135.844L376.543 134.905L377.298 132.638L380.611 131.812L382.791 130.935L383.386 129.967L385 126.931L385.297 123.428L384.227 122.375L382.648 121.435L382.104 120.068L380.926 119.476L380.308 118.525L390.109 117.898L400.128 117.163L407.52 116.645L407.514 116.611H407.549Z" fill="#1E1E1E" stroke="#55ACDD" stroke-opacity="0.48"/>
<path d="M437.53 124.072L438.938 135.685L440.414 148.175L441.455 157.065L440.958 157.743L442.096 160.261L441.782 161.263L440.088 161.491L438.646 162.812L436.203 162.63L436.277 165.119L434.961 166.224L433.88 168.582L432.484 169.145L430.67 173.212L428.479 172.335L427.672 170.831L426.167 173.576L425.183 175.126L422.831 173.838L420.6 175.296L419.948 176.623L416.606 174.966L414.541 176.578L411.811 175.82L411.834 177.25L410.478 177.034L410.575 174.402L411.697 170.82L413.551 167.824L414.089 165.626L414.867 164.766L414.781 163.029L414.043 160.881L413.127 160.016L413.934 156.331L412.549 141.437L411.159 126.527L412.132 127.313L415.422 126.925L417.894 125.251L428.313 124.203L437.399 123.07L437.53 124.072Z" fill="#1E1E1E" stroke="#55ACDD" stroke-opacity="0.48"/>
<path d="M343.105 191.073L333.974 191.181L315.241 191.118L296.502 190.691L286.1 190.298L275.71 189.786L265.926 189.205L267.201 170.284L268.432 150.425H268.449L285.866 151.41L298.831 151.928L321.786 152.39H335.53L337.916 154.092L339.215 154.053L339.524 155.921L338.139 158.33L338.917 159.549L340.193 162.248L342.865 163.433L342.968 177.267L343.105 191.073Z" fill="#1E1E1E" stroke="#55ACDD" stroke-opacity="0.48"/>
<path d="M465.16 162.863L465.532 164.048L465.818 166.708L467.329 168.525L468.113 170.387L469.852 171.822L471.111 173.212L473.136 173.144L469.623 177.569L466.642 179.54L466.545 180.61L465.652 182.12L463.049 184.05L462.299 185.423L460.28 186.516L457.39 187.65L450.421 189L441.198 189.581L438.228 190.087L432.221 190.395L426.121 190.936L420.508 191.426L414.026 192.394L413.637 191.836L411.571 192.047L411.783 194.068L396.849 195.134L399.092 193.607L400.665 192.411L400.311 190.401L400.54 189.085L399.99 187.166L400.597 185.861L403.406 186.346L406.004 187.337L407.274 186.163L406.639 183.384L408.882 182.108L410.61 181.015L409.626 179.876L410.633 177.985L410.478 177.034L411.834 177.25L411.811 175.82L414.541 176.578L416.606 174.966L419.948 176.623L420.6 175.296L422.831 173.838L425.183 175.126L426.167 173.576L427.672 170.831L428.479 172.335L430.67 173.212L432.484 169.145L433.88 168.582L434.961 166.224L436.277 165.119L436.203 162.63L438.646 162.812L440.088 161.491L441.782 161.263L442.096 160.261L440.958 157.743L441.455 157.065L444.928 156.934L446.862 157.943L449.918 160.488L452.172 161.109L453.866 161.935L456.217 161.252L458.094 161.741L460.154 160.733L462.031 160.238L463.095 161.912L465.16 162.863Z" stroke="#55ACDD" stroke-opacity="0.48"/>
<path d="M381.927 241.397L382.751 242.098L381.853 244.023L383.592 246.603L383.226 248.232L384.776 250.385L383.312 251.797L382.934 254.275L380.891 256.41L380.027 259.184L379.169 262.368L377.87 263.888L378.483 267.112L388.427 266.998L399.029 266.355L398.857 268.536L398.257 270.717L399.086 272.312L400.677 273.719L401.232 275.843L401.535 277.119L400.603 282.632L404.734 290.201L388.93 291.745L379.015 289.592L372.269 287.2L363.492 285.833L353.559 285.725L352.575 284.022L353.691 282.08L355.355 280.314L355.321 277.711L354.469 276.863L355.378 273.724L356.065 272.295L357.026 267.505L355.979 265.757L354.606 262.829L353.576 259.839L352.907 257.846L351.047 256.422L350.069 242.553L360.671 242.297L372.641 241.409L381.927 241.397Z" fill="#1E1E1E" stroke="#55ACDD" stroke-opacity="0.48"/>
<path d="M566.743 82.3418L568.54 88.9712L573.512 94.6894L577.471 93.8807L575.165 89.6319L578.77 91.574L579.068 95.3387L573.335 99.1774L568.751 100.208L567.956 98.3801L566.079 97.3606L564.472 94.2851L560.569 95.5039L551.775 97.5371L544.532 99.1489L544.337 89.9964L552.05 88.2194L563.259 85.3034L563.871 83.8055L565.587 82.4158L566.743 82.3418Z" fill="#1E1E1E" stroke="#55ACDD" stroke-opacity="0.48"/>
<path d="M529.638 133.674L534.009 149.565L540.635 148.05L541.459 149.058L538.627 154.258L536.35 154.981L535.76 156.023L529.318 151.136L526.789 141.768L526.142 146.563L528.683 157.453L521.868 154.987L520.907 153.335L519.396 154.223L517.926 153.808L518.469 150.755L519.917 149.211L519.877 148.152L520.924 146.757L519.385 145.714L518.71 146.489L516.57 145.464L514.321 145.134L514.762 143.624L513.257 142.941L511.718 142.81L510.613 141.352L509.046 139.786L505.801 139.387L504.096 140.714L503.204 141.864L500.194 141.916L499.13 143.493L497.265 144.365L495.84 146.142L494.53 147.56L493.425 141.095L502.563 139.393L505.676 138.76L512.633 137.308L521.027 135.605L529.638 133.674Z" fill="#1E1E1E" stroke="#55ACDD" stroke-opacity="0.48"/>
<path d="M567.498 79.1011L566.566 79.4998L565.645 77.8823L563.43 76.5097L563.425 75.1826L555.82 52.7712L558.859 49.559L560.335 42.9751L560.135 32.4614L563.854 21.0649L567.699 23.4912L572.757 19.6012L577.694 21.9933L583.142 38.9257L591.146 44.0687L593 49.2799L585.642 55.9834L577.866 61.5934L569.861 72.1128L567.498 79.1011Z" fill="#1E1E1E" stroke="#55ACDD" stroke-opacity="0.48"/>
<path d="M432.1 61.1549L435.144 61.172L434.172 62.6015L439.338 67.1635L431.523 69.3563L431.214 69.3335L423.924 68.8209L417.133 72.1926L411.062 73.9923L406.479 82.7519L406.233 82.6835L406.227 82.7063L404.86 81.2881L405.346 79.141L403.315 79.2093L403.544 77.0678L404.007 75.9743L403.034 74.2258L400.809 73.5936L400.122 71.5034L398.337 71.4863L395.768 71.68L390.349 69.7492L382.259 67.9723L381.378 65.677L379.936 65.341L379.924 65.3011L379.381 65.603L379.295 65.5403L379.375 65.5973L386.104 61.8269L392.97 57.0713L400.46 52.0992L398.199 59.2127L403.423 60.4259L410.226 64.7715L417.905 61.0524L426.579 58.9109L428.902 62.311L431.711 62.4933L432.1 61.1549ZM458.163 104.07L457.951 104.275L454.529 111.975L453.076 116.759L450.479 122.164L446.857 122.773L442.462 123.349L437.53 124.066L437.399 123.064L428.313 124.197L417.894 125.245L419.667 123.263L422.906 116.583L422.248 108.062L418.26 100.425L418.151 94.9058L419.902 88.3163L421.733 83.7258L425.063 80.2174L426.425 84.4491L427.294 77.888L429.154 76.3331L429.829 71.2699L437.885 72.876L445.323 76.9881L446.897 82.7291L446.88 88.7092L442.468 94.5527L443.384 97.7251L445.26 97.5827L450.255 91.1241L453.889 91.9101L456.687 99.0977L457.951 104.28L458.163 104.07Z" fill="#1E1E1E" stroke="#55ACDD" stroke-opacity="0.48"/>
<path d="M385.246 46.4322L385.24 46.4379L376.509 51.3302L370.484 56.9004L364.67 62.6926L364.728 64.6062L362.382 65.4321L362.777 72.7336H362.49L360.293 74.2599L358.394 75.5813L357.175 78.0189L359.189 80.3882L358.605 83.6801L358.726 87.2056L358.542 90.0704L361.352 92.4681L362.468 92.5422L365.563 94.2622L366.65 95.0937L367.371 96.4606L369.837 98.5793L373.11 100.339L373.47 101.393L373.659 104.508L373.985 105.955L361.552 106.279L347.717 106.775L334.838 107.134L324.476 107.122L324.664 95.0026L323.606 82.5581L322.004 81.533L321.111 79.5168L321.62 77.7569L323.68 76.316L323.852 74.4251L323.869 72.0558L323.314 70.0738L322.57 67.9551L322.153 65.3011L322.067 62.3281L321.769 61.6104L321.437 57.7774L321.42 56.0176L321.26 54.4513L320.842 51.7973L319.795 49.0977L318.8 46.6885L318.68 44.3078L318.599 41.7392L318.92 40.0647L318.994 38.5384L318.205 36.6361L318.096 35.3433L336.079 35.3945L336.051 30.3427L338.974 30.2402L340.611 37.4392L343.363 39.6205L349.485 40.2926L358.485 42.098L367.177 45.8L374.203 43.7212L385.24 46.4322H385.246Z" fill="#1E1E1E" stroke="#55ACDD" stroke-opacity="0.48"/>
<path d="M374.117 146.535L373.413 149.787L374.495 153.603L376.291 156.171L378.322 158.261L380.737 159.868L381.698 160.403L382.682 162.806L382.974 164.954L384.158 165.426L386.024 164.475L388.084 166.429L387.66 168.843L386.836 170.78L386.321 173.087L387.889 174.932L390.035 176.618L391.202 176.589L394.086 179.238L395.15 179.545L396.14 182.609L395.899 184.569L397.456 187.638L398.548 187.223L400.54 189.085L400.311 190.401L400.666 192.411L399.092 193.607L396.849 195.133L396.666 196.398L396.157 198.283L395.562 201.484L388.696 201.934L389.262 200.612L390.349 199.143L391.442 197.679L390.464 196.142L378.5 196.045L367.451 196.552L355.87 196.916L343.134 197.007L343.157 191.073H343.105L342.968 177.267L342.865 163.433L340.193 162.248L338.917 159.549L338.139 158.33L339.524 155.921L339.215 154.053L337.916 154.092L335.53 152.389L334.214 149.639L332.663 147.993L330.987 145.954L330.787 144.889L339.672 144.832L348.541 144.661L359.921 144.239L370.718 143.522L372.709 145.527L374.117 146.535Z" fill="#1E1E1E" stroke="#55ACDD" stroke-opacity="0.48"/>
<path d="M412.441 213.444L413.419 215.876L412.95 232.763L412.767 253.591L414.781 273.371L408.075 276.851L401.535 277.119L401.232 275.843L400.677 273.719L399.086 272.312L398.257 270.717L398.857 268.536L399.029 266.355L388.427 266.998L378.483 267.112L377.87 263.888L379.169 262.368L380.027 259.184L380.891 256.41L382.934 254.275L383.312 251.797L384.776 250.385L383.226 248.232L383.592 246.603L381.853 244.023L382.751 242.098L381.927 241.397L382.316 238.823L380.88 235.491L380.966 232.41L383.083 227.768L384.078 225.04L385.881 223.172L387.082 222.363L388.307 218.821L388.232 216.947L390.08 215.865L390.218 214.828L400.723 214.099L412.441 213.444Z" fill="#1E1E1E" stroke="#55ACDD" stroke-opacity="0.48"/>
<path d="M255.604 72.0161L254.07 83.8511L238.719 82.2109L222.155 80.3371L207.902 78.2583L189.879 75.5472L188.826 82.0628L188.58 82.4899L187.699 81.6185L187.109 79.6707L186.177 79.1524L184.426 81.4705L182.246 81.516L177.205 79.796L176.73 81.0091L173.806 79.9897L171.781 81.4477L170.785 77.8254L170.013 75.758L168.216 75.0859L167.844 74.0494L167.919 70.6036L166.626 68.6957L166.391 64.4583L165.664 62.4934L164.646 61.9238L163.364 63.5356L161.276 64.6918L159.931 63.1028L160.515 59.8165L161.728 59.2071L161.659 55.7728L163.216 52.5891L164.772 49.9578L162.134 49.2914L160.246 46.962L158.644 42.4968L157.608 40.2073L155.857 38.5613L154.69 36.1692L155.205 33.8683L153.683 29.9726L156.018 16.3777L181.439 21.6004L207.026 25.9858L232.745 29.5341L258.567 32.2394L256.553 56.1886L255.604 72.0161Z" fill="#1E1E1E" stroke="#55ACDD" stroke-opacity="0.48"/>
<path d="M537.894 173.827L542.209 186.112L537.683 196.95L528.419 204.018L520.655 212.243L517.033 213.729L502.895 203.91L491.143 205.83L490.919 204.337L488.905 202.452L487.984 203.472L487.715 202.361L482.686 202.572L472.942 203.973L467.563 207.003L466.562 207.532L453.357 209.218L453.236 206.473L455.371 205.374L455.914 203.904L457.202 202.15L459.29 201.524L461.682 200.595L463.924 199.154L464.8 197.879L466.648 196.569L466.459 195.652L468.834 193.533L469.846 194.536L473.331 191.545L475.168 191.523L476.432 189.131L478.458 188.248L478.057 186.442L478.063 184.796L495.577 182.433L516.095 178.628L526.932 176.287L537.894 173.827Z" fill="#1E1E1E" stroke="#55ACDD" stroke-opacity="0.48"/>
<path d="M318.096 35.3433L318.205 36.6362L318.994 38.5384L318.92 40.0648L318.599 41.7393L318.679 44.3079L318.8 46.6886L319.795 49.0977L320.842 51.7973L321.26 54.4514L321.42 56.0176L321.437 57.7775L321.769 61.6105L322.067 62.3281L322.153 65.3011L322.57 67.9552L323.314 70.0739L323.869 72.0559L323.852 74.4252L306.487 74.8523L291.667 74.2942L272.986 73.3089L255.604 72.016L256.553 56.1885L258.567 32.2393L288.566 34.3694L318.096 35.3433Z" fill="#1E1E1E" stroke="#55ACDD" stroke-opacity="0.48"/>
<path d="M324.39 120.239L324.813 121.532L325.42 123.668L325.391 124.738L327.148 127.182L327.754 129.323L327.823 132.313L328.526 132.735L329.173 134.278L330.186 138.009L330.403 140.236L330.129 142.548L330.787 144.889L330.987 145.954L332.663 147.993L334.214 149.639L335.53 152.39H321.786L298.831 151.928L285.866 151.41L268.449 150.425H268.432L268.454 150.009L269.318 137.49L249.733 135.975L251.953 110.244L270.549 111.684L284.853 112.527L303.992 113.279L306.418 114.982L309.914 116.098L310.749 115.523L313.026 115.614L316.448 115.54L318.903 117.237L321.523 118.342L321.952 119.425L322.776 120.051L324.39 120.239Z" fill="#1E1E1E" stroke="#55ACDD" stroke-opacity="0.48"/>
<path d="M567.498 79.1011L566.743 82.3418L565.587 82.4158L563.871 83.8055L563.259 85.3034L552.05 88.2194L550.963 87.1145L551.26 85.2977L550.608 81.9545L550.682 81.0945L550.202 78.0531L550.534 75.2852L550.986 73.9923L551.266 70.7345L550.928 68.6614L550.9 67.3629L552.479 66.2864L554.098 64.2816L554.024 62.63L552.862 61.0182L552.965 57.3219L552.948 57.3162L552.977 53.9844L555.821 52.7712L563.425 75.1827L563.43 76.5097L565.645 77.8823L566.566 79.4998L567.498 79.1011Z" fill="#1E1E1E" stroke="#55ACDD" stroke-opacity="0.48"/>
<path d="M544.051 113.854L542.266 120.769L544.812 120.729L545.378 130.177L540.584 141.551L539.085 138.493L536.773 138.345L533.655 135.594L532.825 135.93L532.013 133.566L533.157 131.92L534.885 130.308L535.4 129.363L537.311 127.159L538.232 125.496L534.416 122.956L533.935 121.663L532.796 121.515L532.367 119.481L533.128 117.682L532.23 116.161L533.5 114.697L534.501 111.491L535.531 110.659L544.051 113.854Z" fill="#1E1E1E" stroke="#55ACDD" stroke-opacity="0.48"/>
<path d="M255.941 188.447L255.461 194.837L252.84 228.617L250.952 252.948L240.664 252.105L220.73 250.168L210.78 249.052L210.768 250.168L211.77 252.372L192.699 249.986L191.835 255.283L182.927 254.07L193.449 181.493L209.59 183.674L225.92 185.634L243.525 187.393L255.941 188.447Z" stroke="#55ACDD" stroke-opacity="0.48"/>
<path d="M155.056 109.458L142.303 172.779L140.317 182.985L139.785 183.316L138.709 185.11L137.405 184.324L135.608 183.019L133.44 182.575L132.404 183.988L132.965 185.913L132.393 188.635L132.095 191.135L132.09 193.721L130.928 196.073L117.053 176.276L102.857 155.357L88.6047 133.657L98.7721 96.2671L126.705 103.238L126.717 103.204L155.056 109.458Z" fill="#1E1E1E" stroke="#55ACDD" stroke-opacity="0.48"/>
<path d="M544.337 89.9964L544.532 99.1489L546.437 108.871L547.455 109.748L545.693 111.491L546.42 112.937L559.454 107.777L562.904 109.389L550.534 116.634L544.429 118.189L544.051 113.854L535.531 110.659L533.781 110.135L531.955 109.64L530.908 107.954L530.834 106.507L529.438 105.63L526.92 104.127L514.064 106.957L500.234 109.811L485.381 112.613L484.751 109.161L491.463 100.077L491.051 98.8926L491.045 98.8585L489.066 95.4241L493.626 92.8954L501.041 91.9158L508.885 91.3861L514.928 85.7021L513.285 80.8951L511.804 79.1524L511.763 79.141L511.769 79.1353L511.809 79.1524L519.276 68.3994L522.806 65.1189L536.453 61.6902L536.922 64.2874L536.973 66.0017L538.146 69.6809L539.136 71.475L538.884 74.3056L540.561 77.3811L540.441 79.3517L540.732 79.7845L542.071 79.5453L544.337 89.9964Z" fill="#1E1E1E" stroke="#55ACDD" stroke-opacity="0.48"/>
<path d="M481.124 131.203L479.882 132.068L480.575 133.617L480.62 136.63L480.174 140.116L479.682 143.026L479.739 144.365L477.531 147.719L476.484 148.528L475.202 149.103L473.955 149.012L472.084 151.558L472.044 153.922L471.929 155.214L471.117 155.858L470.768 154.457L469.366 154.354L468.382 157.339L468.656 160.192L467.615 162.163L465.16 162.863L463.095 161.912L462.031 160.238L460.154 160.733L458.094 161.741L456.217 161.252L453.866 161.935L452.172 161.109L449.918 160.488L446.862 157.943L444.928 156.934L441.455 157.065L440.414 148.175L438.938 135.685L437.53 124.072L442.462 123.354L446.857 122.779L450.479 122.164V122.17L456.812 123.975L461.727 123.918L468.45 121.133L473.566 116.679L478.2 114.133L481.124 131.203Z" stroke="#55ACDD" stroke-opacity="0.48"/>
<path d="M343.134 197.007L345.451 210.636L345.44 223.223L345.32 234.557L340.605 232.085L337.55 230.741L335.089 231.635L331.273 231.516L329.013 231.539L327.153 232.592L325.334 233.128L323.743 232.484L320.11 233.162L318.485 230.986L316.768 232.837L313.816 231.96L310.812 229.898L307.528 231.128L306.178 227.979L301.131 228.155L297.933 227.364L294.339 226.322L292.835 223.582L289.968 224.34L288.257 223.212L285.751 221.714L286.3 209.378L286.855 196.728L276.385 196.21L265.914 195.583L255.461 194.837L255.941 188.447L265.926 189.205L275.71 189.786L286.1 190.298L296.502 190.691L315.241 191.118L333.974 191.181L343.105 191.073H343.157L343.134 197.007Z" fill="#1E1E1E" stroke="#55ACDD" stroke-opacity="0.48"/>
<path d="M139.682 52.9193L141.21 55.8467L142.469 57.2193L142.503 59.2526L141.216 60.6992L139.247 63.6836L137.004 67.4767L134.464 69.5214L132.507 72.09L132.004 74.1062L133.509 75.3592L133.858 77.1817L132.21 80.5819L126.717 103.204L126.705 103.238L98.7722 96.267L59.6072 84.6598L58.8863 76.8001L65.9354 64.4695L71.0449 50.7379L78.6032 32.5297L80.4513 32.9227L83.0776 33.8112L84.8341 35.5939L87.14 37.0804L88.0326 39.9508L87.6263 42.1094L87.7465 44.0515L89.6346 45.1337L91.8089 45.7374L95.6023 45.4127L97.7136 45.5893L100.706 47.0245L101.908 48.0725L103.882 48.1465L106.176 47.6909L110.113 48.9496L113.769 48.4427L115.766 47.8788L117.871 49.0236L121.384 48.5281L139.682 52.9193Z" fill="#1E1E1E" stroke="#55ACDD" stroke-opacity="0.48"/>
<path d="M535.531 110.659L534.502 111.491L533.5 114.697L532.23 116.161L533.128 117.682L532.367 119.482L532.796 121.515L533.935 121.663L534.416 122.956L538.232 125.496L537.311 127.159L535.4 129.363L534.885 130.308L533.157 131.92L530.908 131.749L530.159 132.513L529.638 133.674L521.027 135.605L512.633 137.308L505.676 138.76L502.563 139.393L493.426 141.096L483.149 142.918L481.124 131.203L478.2 114.134L484.734 109.184L484.751 109.161L485.381 112.613L500.234 109.811L514.064 106.957L526.92 104.127L529.438 105.63L530.834 106.507L530.908 107.954L531.955 109.64L533.781 110.135L535.531 110.659Z" fill="#1E1E1E" stroke="#55ACDD" stroke-opacity="0.48"/>
<path d="M568.751 100.208L562.44 104.286L562.515 102.304L560.569 95.5039L564.472 94.285L566.079 97.3605L567.956 98.38L568.751 100.208Z" fill="#1E1E1E" stroke="#55ACDD" stroke-opacity="0.48"/>
<path d="M517.033 213.729L514.544 223.474L506.574 233.11L496.298 241.574L494.307 241.226L493.22 240.919L492.836 238.476L491.36 236.249L489.1 235.178L489.323 234.175L488.448 232.86L487.2 230.058L483.327 228.019L481.587 225.165L478.709 223.474L477.725 221.993L473.525 219.516L471.912 217.431L469.331 213.666L467.369 213.154L464.193 211.428L465.549 208.763L466.562 207.532L467.563 207.003L472.942 203.973L482.686 202.572L487.715 202.361L487.984 203.472L488.905 202.452L490.919 204.337L491.143 205.829L502.895 203.91L517.033 213.729Z" fill="#1E1E1E" stroke="#55ACDD" stroke-opacity="0.48"/>
<path d="M324.476 107.122H323.217L323.182 110.283L324.39 112.009L324.155 113.416L323.646 115.489L322.862 117.608L324.407 119.054L324.39 120.239L322.776 120.051L321.952 119.424L321.523 118.342L318.903 117.237L316.448 115.54L313.026 115.614L310.749 115.523L309.914 116.098L306.418 114.982L303.992 113.279L284.853 112.527L270.549 111.684L251.953 110.243L254.07 83.851L255.604 72.0159L272.986 73.3088L291.667 74.2941L306.487 74.8522L323.852 74.4251L323.68 76.316L321.62 77.7569L321.111 79.5168L322.004 81.533L323.606 82.5581L324.664 95.0026L324.476 107.122Z" fill="#1E1E1E" stroke="#55ACDD" stroke-opacity="0.48"/>
<path d="M457.39 187.65L472.856 185.861L478.063 184.796L478.057 186.442L478.458 188.248L476.432 189.131L475.168 191.523L473.331 191.545L469.846 194.535L468.834 193.533L466.459 195.652L466.648 196.569L464.8 197.879L463.924 199.154L461.682 200.595L459.29 201.524L457.201 202.15L455.914 203.904L455.371 205.374L453.236 206.473L453.357 209.218L447.709 210.061L439.504 210.915L425.829 212.208L412.441 213.444L400.723 214.099L390.218 214.828L391.356 213.547L390.984 209.799L392.552 207.994L392.815 205.829L394.583 204.451L395.527 202.56L395.562 201.484L396.157 198.283L396.666 196.398L396.849 195.133L411.783 194.068L411.571 192.047L413.637 191.836L414.026 192.394L420.508 191.426L426.121 190.936L432.221 190.395L438.228 190.087L441.198 189.58L450.421 189L457.39 187.65Z" fill="#1E1E1E" stroke="#55ACDD" stroke-opacity="0.48"/>
<path d="M345.32 234.557L345.909 235.394L348.02 235.184H350.544L350.069 242.553L351.047 256.422L352.907 257.846L353.576 259.839L354.606 262.829L355.979 265.757L357.026 267.505L356.065 272.295L355.378 273.724L354.469 276.863L355.321 277.711L355.355 280.314L353.69 282.08L352.575 284.022L353.559 285.725L343.821 288.652L333.407 298.448L321.844 304.087L315.401 310.289L312.614 316.161L312.363 325.239L312.86 331.578L315.075 336.106L310.383 336.431L301.926 333.35L292.72 328.987L289.602 322.682L287.353 313.382L280.75 305.613L277.094 297.753L271.779 288.504L264.009 282.837L254.654 282.467L246.649 292.229L237.432 287.53L231.87 283.065L229.719 275.649L226.635 268.507L220.553 262.123L215.294 257.418L211.77 252.372L210.768 250.168L210.78 249.052L220.73 250.168L240.664 252.105L250.952 252.948L252.84 228.617L255.461 194.837L265.914 195.583L276.385 196.21L286.855 196.728L286.3 209.378L285.751 221.714L288.257 223.212L289.968 224.34L292.835 223.582L294.339 226.322L297.933 227.364L301.131 228.156L306.178 227.979L307.528 231.129L310.812 229.898L313.816 231.96L316.768 232.837L318.485 230.986L320.11 233.162L323.743 232.484L325.334 233.128L327.153 232.592L329.013 231.539L331.273 231.516L335.089 231.635L337.55 230.741L340.605 232.085L345.32 234.557Z" fill="#1E1E1E" stroke="#55ACDD" stroke-opacity="0.48"/>
<path d="M200.796 130.32L193.449 181.493L178.533 179.129L158.827 175.735L142.303 172.779L155.056 109.458L183.528 114.561L181.399 126.971L200.796 130.32Z" fill="#1E1E1E" stroke="#55ACDD" stroke-opacity="0.48"/>
<path d="M511.718 142.81L513.251 142.946L514.762 143.624L514.315 145.134L516.564 145.464L518.71 146.489L519.762 147.4L519.871 148.152L519.911 149.211L518.469 150.755L517.926 153.808L519.396 154.218L520.907 153.329L521.868 154.987L529.724 160.693L533.008 166.298L533.208 166.639L537.9 173.821L526.937 176.282L516.106 178.623L495.583 182.427L478.069 184.796L472.862 185.861L457.39 187.65L460.285 186.511L462.305 185.417L463.049 184.039L465.652 182.114L466.551 180.605L466.648 179.534L469.629 177.563L473.136 173.132L473.932 175.228L475.265 176.202L476.987 176.982L479.968 174.926L481.347 175.621L484.986 173.924L485.015 172.745L486.245 173.001L487.349 171.856L488.802 171.794L490.25 170.529L490.267 169.328L489.827 167.887L490.811 165.443L492.47 163.439L492.63 161.474L493.946 158.905L494.404 155.966L495.914 156.707L497.574 157.339L498.924 156.581L499.187 155.334L499.874 153.574L500.641 151.564L501.464 151.957L502.626 150.037L504.251 148.004L505.235 146.506L505.35 142.981L511.088 145.407L511.718 142.81ZM534.233 165.301L535.268 165.597L538.633 154.258L536.35 154.981L535.76 156.017L534.233 165.301Z" fill="#1E1E1E" stroke="#55ACDD" stroke-opacity="0.48"/>
<path d="M552.05 88.2194L544.337 89.9964L542.071 79.5453L540.732 79.7845L540.441 79.3517L540.561 77.3811L538.884 74.3056L539.136 71.4749L538.146 69.6809L536.973 66.0017L536.922 64.2873L536.453 61.6902L552.948 57.3162L552.965 57.3219L552.862 61.0182L554.024 62.63L554.098 64.2816L552.479 66.2864L550.9 67.3629L550.928 68.6614L551.266 70.7345L550.986 73.9923L550.534 75.2852L550.202 78.0531L550.682 81.0945L550.608 81.9545L551.26 85.2977L550.963 87.1145L552.05 88.2194Z" fill="#1E1E1E" stroke="#55ACDD" stroke-opacity="0.48"/>
<path d="M147.687 14.4867L143.87 30.787L139.934 48.5566L140.289 50.681L139.682 52.9193L121.384 48.5281L117.871 49.0236L115.766 47.8789L113.769 48.4427L110.113 48.9496L106.176 47.6909L103.882 48.1465L101.908 48.0725L100.706 47.0246L97.7136 45.5893L95.6023 45.4128L91.8089 45.7374L89.6346 45.1337L87.7465 44.0516L87.6263 42.1094L88.0325 39.9509L87.14 37.0804L84.8341 35.5939L83.0776 33.8112L80.4513 32.9227L78.6032 32.5298L79.5759 21.4522L82.0534 9.02482L93.0791 14.9765L93.8515 25.9231L96.9641 23.2462L98.6978 12.556L97.8853 1L122.672 8.16482L147.687 14.4867Z" fill="#1E1E1E" stroke="#55ACDD" stroke-opacity="0.48"/>
<path d="M379.295 65.546L379.381 65.6087L379.919 65.3011L379.93 65.341L381.378 65.6827L382.259 67.9779L390.344 69.7492L395.768 71.68L398.331 71.492L400.116 71.5091L400.803 73.5993L403.034 74.2315L404.007 75.98L403.544 77.0735L403.315 79.215L405.346 79.1466L404.86 81.2938L406.227 82.7119L406.233 82.6892L406.479 82.7575L406.404 82.8885L403.206 87.8834L404.602 89.3015L410.598 80.3313L411.977 80.149L408.149 90.5659L406.879 99.764L405.752 107.231L407.514 113.444L407.549 116.611H407.514L407.52 116.645L400.128 117.163L390.109 117.898L380.308 118.525L379.261 116.605L376.062 115.54L375.336 113.518L374.884 112.385L374.706 109.668L375.502 108.643L374.157 106.655L373.985 105.955L373.659 104.508L373.47 101.393L373.11 100.339L369.837 98.5793L367.371 96.4606L366.65 95.0938L365.563 94.2622L362.468 92.5422L361.352 92.4682L358.542 90.0704L358.726 87.2056L358.605 83.6802L359.189 80.3882L357.175 78.0189L358.394 75.5813L360.293 74.26L362.49 72.7336H362.777L362.382 65.4321L364.728 64.6063L373.602 61.4453L379.295 65.546Z" fill="#1E1E1E" stroke="#55ACDD" stroke-opacity="0.48"/>
<path d="M493.426 141.096L494.53 147.56L495.84 146.142L497.265 144.365L499.13 143.493L500.194 141.916L503.204 141.864L504.096 140.714L505.802 139.387L509.046 139.786L510.613 141.352L511.718 142.81L511.094 145.413L505.355 142.986L505.241 146.512L504.257 148.01L502.632 150.043L501.47 151.962L500.646 151.569L499.874 153.574L499.187 155.34L498.924 156.581L497.579 157.339L495.914 156.707L494.404 155.966L493.946 158.905L492.63 161.474L492.47 163.439L490.816 165.443L489.827 167.887L490.256 169.35L490.239 170.552L488.797 171.817L487.343 171.879L486.239 173.024L485.009 172.762L484.98 173.941L481.341 175.638L479.962 174.938L476.981 176.994L475.265 176.213L473.926 175.24L473.136 173.144L471.111 173.212L469.852 171.822L468.113 170.387L467.329 168.525L465.818 166.708L465.532 164.048L465.16 162.863L467.615 162.163L468.656 160.192L468.382 157.339L469.366 154.354L470.768 154.457L471.117 155.858L471.929 155.214L472.044 153.922L472.084 151.558L473.955 149.012L475.202 149.103L476.484 148.528L477.531 147.719L479.739 144.365L479.682 143.026L480.174 140.116L480.62 136.63L480.575 133.617L479.882 132.068L481.124 131.203L483.149 142.918L493.426 141.096Z" stroke="#55ACDD" stroke-opacity="0.48"/>
<path d="M254.07 83.8511L251.953 110.244L249.733 135.975L239.92 135.058L220.335 132.906L210.562 131.664L200.796 130.32L181.399 126.971L183.528 114.561L188.872 82.7746L188.58 82.4899L188.826 82.0627L189.879 75.5472L207.902 78.2582L222.155 80.337L238.719 82.2108L254.07 83.8511Z" fill="#1E1E1E" stroke="#55ACDD" stroke-opacity="0.48"/>
</svg>
